<svg id="Layer_1" data-name="Layer 1" xmlns="http://www.w3.org/2000/svg" viewBox="0 0 376.89 369.78"><defs><style>.cls-1{fill:none;stroke:#fff;stroke-miterlimit:10;stroke-width:7px;}</style></defs><title>Liquid</title><path class="cls-1" d="M244,136.27c-7.06-8.47-14.11-8.77-14.11-38.69V87.3H142.46s.06,3,.06,10.28c0,29.92-7.91,31.43-14.11,38.69S106.65,153,106.65,181V298c0,19.87,11,28,31,28h97.13c20,0,31-8.16,31-28V181C265.74,153,251,144.73,244,136.27Z"/><path class="cls-1" d="M137.22,43.78h98a5,5,0,0,1,5,5V87.3a0,0,0,0,1,0,0h-108a0,0,0,0,1,0,0V48.78A5,5,0,0,1,137.22,43.78Z"/><path class="cls-1" d="M237,128.91c-3-2.23-6.21-4.21-11.09-2.73-4.34,1.31-6.78,3.55-11.44,5-6.93,2.14-9.5-5.21-17.91-4.07-7,.95-7.76,5.26-13.25,4.69-5.72-.6-6.79-4.23-13.16-5.55-6.08-1.27-8.54,5.43-14.62,4.82a23.18,23.18,0,0,1-15.64-9"/></svg>