<svg id="Layer_1" data-name="Layer 1" xmlns="http://www.w3.org/2000/svg" viewBox="0 0 157.5 153"><defs><style>.cls-1{fill:#1664ae;stroke:#1664ae;}.cls-1,.cls-2{stroke-miterlimit:10;}.cls-2{fill:#4994ce;stroke:#4894ce;}</style></defs><title>Artboard 1</title><path class="cls-1" d="M100.65,34.76A23.53,23.53,0,0,0,77.12,11.23h0A23.53,23.53,0,0,0,53.6,34.76v19h-19A23.53,23.53,0,0,0,11.11,77.25h0a23.54,23.54,0,0,0,23.53,23.53h66v-66Z"/><path class="cls-2" d="M53.6,120.23c0,12.65,10.53,22.91,23.52,22.91h0c13,0,23.53-10.26,23.53-22.91V101.78H53.6Z"/><path class="cls-2" d="M120.16,53.72H101.65v47.06h18.51c12.69,0,23-10.54,23-23.53h0C143.14,64.25,132.85,53.72,120.16,53.72Z"/></svg>