<?xml version="1.0" encoding="utf-8"?>
<!-- Generator: Adobe Illustrator 21.1.0, SVG Export Plug-In . SVG Version: 6.00 Build 0)  -->
<svg version="1.1" id="Layer_2" xmlns="http://www.w3.org/2000/svg" xmlns:xlink="http://www.w3.org/1999/xlink" x="0px" y="0px"
	 viewBox="0 0 850.4 601.5" style="enable-background:new 0 0 850.4 601.5;" xml:space="preserve">
<style type="text/css">
	.st0{fill:#3D6C99;}
	.st1{fill:#1B75BC;}
	.st2{fill:#21409A;}
	.st3{fill:#17324C;}
</style>
<g>
	<path class="st0" d="M279.8,150.2h-2.3c-0.3,0-0.6,0-0.8,0c-76.9,1.1-138.9,63.7-138.9,140.9c0,77.8,63.1,140.9,140.9,140.9
		c0.7,0,1.4,0,2.1,0h103.4v-47.5v-57.3H279.5v-72.3h104.7v-57.3v-47.5H279.8z"/>
	<path class="st1" d="M276.7,150.2L276.7,150.2c0.3,0,0.6,0,0.8,0H276.7z"/>
	<path class="st1" d="M278.7,150.2c-0.4,0-0.8,0-1.1,0h2.3C279.5,150.2,279.1,150.2,278.7,150.2z"/>
</g>
<g>
	<path class="st2" d="M565.4,432L565.4,432c-0.3,0-0.6,0-0.8,0H565.4z"/>
	<path class="st3" d="M693,243.3c-5.8,18.3-15.7,34.9-29.6,49.8c-23.9,25.5-56.5,38.3-97.7,38.3h-3.3h-77.1v78.9V432h74h2.3
		c0.3,0,0.6,0,0.8,0c76.9-1.1,138.9-63.7,138.9-140.9C701.3,274.3,698.4,258.2,693,243.3z"/>
	<path class="st2" d="M563.4,432c0.4,0,0.8,0,1.1,0h-2.3C562.6,432,563,432,563.4,432z"/>
</g>
<path class="st3" d="M578.5,163.1c-4.2-2.8-9.6-5-16.1-6.7c-7.7-2-16.9-3.3-27.7-3.9c-4.3-0.2-8.9-0.4-13.7-0.4h-35.7v19.7v80.4
	h47.1c11.6,0,21.7-1.3,30.1-3.8c22-6.7,32.9-22.1,32.9-46.2C595.3,183.5,589.7,170.4,578.5,163.1z"/>
</svg>
