<svg id="Layer_1" data-name="Layer 1" xmlns="http://www.w3.org/2000/svg" viewBox="0 0 376.89 369.78"><defs><style>.cls-1{fill:#fff;}</style></defs><title>Powder</title><path class="cls-1" d="M206.62,105.56h0a24.25,24.25,0,0,0-38.11,0h0l-138.61,152H345.23ZM114.51,240.7a8.41,8.41,0,1,1,8.41-8.41A8.41,8.41,0,0,1,114.51,240.7Zm26.76-60.52a8.41,8.41,0,1,1,8.4,8.4A8.41,8.41,0,0,1,141.27,180.18Zm21,41.46a8.41,8.41,0,1,1,8.4-8.4A8.41,8.41,0,0,1,162.32,221.64Zm8.4-64.43a8.41,8.41,0,1,1,8.41,8.4A8.41,8.41,0,0,1,170.72,157.21ZM187.53,197a8.41,8.41,0,1,1,8.41-8.41A8.4,8.4,0,0,1,187.53,197Zm18.88,21.85a8.41,8.41,0,1,1,8.4-8.4A8.4,8.4,0,0,1,206.41,218.84Zm30.25,0a8.41,8.41,0,1,1,8.41-8.4A8.4,8.4,0,0,1,236.66,218.84Z"/><path class="cls-1" d="M179.13,261.71H26.67a8.41,8.41,0,0,0,0,16.81H179.13a8.41,8.41,0,0,0,0-16.81Z"/><path class="cls-1" d="M350.22,261.71H236.66a8.41,8.41,0,0,0,0,16.81H350.22a8.41,8.41,0,0,0,0-16.81Z"/><path class="cls-1" d="M213,261.71H202.78a8.41,8.41,0,0,0,0,16.81H213a8.41,8.41,0,1,0,0-16.81Z"/></svg>